<?xml version="1.0" standalone="no"?>
<!DOCTYPE svg PUBLIC "-//W3C//DTD SVG 20010904//EN"
 "http://www.w3.org/TR/2001/REC-SVG-20010904/DTD/svg10.dtd">
<svg version="1.0" xmlns="http://www.w3.org/2000/svg"
 width="387.000000pt" height="390.000000pt" viewBox="0 0 387.000000 390.000000"
 preserveAspectRatio="xMidYMid meet">
<metadata>
</metadata>
<g transform="translate(0.000000,390.000000) scale(0.100000,-0.100000)"
fill="#5658dd" stroke="none">
<path d="M1245 3880 c-27 -11 -76 -40 -107 -66 -45 -36 -66 -62 -95 -122 l-38
-76 0 -1160 0 -1161 32 -65 c36 -75 70 -115 133 -157 93 -63 95 -63 601 -63
l459 0 -2 233 -3 232 -360 5 c-198 3 -361 7 -362 8 -1 1 -9 15 -18 32 -13 25
-15 142 -15 935 0 962 -1 951 45 969 9 3 428 6 930 6 l914 0 20 -26 c21 -27
21 -31 21 -951 l0 -924 -25 -24 c-24 -25 -27 -25 -190 -25 l-165 0 0 -236 0
-235 288 3 288 3 67 34 c80 40 132 94 173 176 l29 60 0 1170 0 1170 -27 57
c-35 76 -99 143 -173 181 l-60 32 -1155 2 c-1125 2 -1156 2 -1205 -17z"/>
<path d="M265 2876 c-100 -32 -180 -98 -228 -191 l-32 -60 0 -1180 0 -1180 24
-50 c34 -69 110 -146 178 -181 l58 -29 1165 0 1165 0 59 29 c67 33 137 99 167
157 50 99 49 75 49 1252 0 970 -2 1106 -16 1160 -29 114 -99 201 -202 253
l-57 29 -477 3 -478 3 0 -236 0 -235 354 0 354 0 26 -31 26 -31 -2 -925 -3
-924 -25 -19 c-24 -19 -53 -20 -941 -20 l-916 0 -21 23 -22 23 0 926 c0 921 0
925 21 952 l20 26 170 0 169 0 0 235 0 235 -272 -1 c-191 0 -285 -4 -313 -13z"/>
</g>
</svg>
