<svg id="SvgjsSvg1016" width="100%" height="100%" xmlns="http://www.w3.org/2000/svg" version="1.1" xlink="http://www.w3.org/1999/xlink" xmlns:svgjs="http://svgjs.com/svgjs" preserveAspectRatio="xMidYMid meet" viewBox="0.000004791523224412231 1.7448532219077606e-7 300.0000305175781 91.4220199584961" overflow="visible" style=""><defs id="SvgjsDefs1017"></defs><g id="SvgjsG1018" transform="scale(0.7318444477291186)" opacity="1"><g id="SvgjsG1019" class="B969a_r7b" transform="translate(-7.4576343542303976, -6.939922343805154) scale(1.3879844687610308)" light-content="false" non-strokable="false" fill="none" stroke-width="2" stroke="#5658dd"><path d="M24.777 38.979h-6.758A2.021 2.021 0 0 0 15.998 41v41.355c0 1.116.905 2.021 2.021 2.021h40.753a2.021 2.021 0 0 0 2.021-2.021V41a2.021 2.021 0 0 0-2.021-2.021H43.326V28.354H62.77a8.648 8.648 0 0 1 8.648 8.648v49.351a8.648 8.648 0 0 1-8.648 8.648H14.021a8.648 8.648 0 0 1-8.648-8.648V37.002a8.648 8.648 0 0 1 8.648-8.648h10.756v10.625z" class="SYLTeuby_0"></path><path d="M75.223 61.021h6.758A2.021 2.021 0 0 0 84.002 59V17.646a2.021 2.021 0 0 0-2.021-2.021H41.228a2.021 2.021 0 0 0-2.021 2.021V59c0 1.116.905 2.021 2.021 2.021h15.446v10.625H37.23a8.648 8.648 0 0 1-8.648-8.648v-49.35A8.648 8.648 0 0 1 37.23 5h48.749a8.648 8.648 0 0 1 8.648 8.648v49.351a8.648 8.648 0 0 1-8.648 8.648H75.223V61.021zM24.777 28.354v10.625h-6.758" class="SYLTeuby_1"></path></g><g id="SvgjsG1020" class="text" transform="translate(280.35317674097513, 79.64999816894532) scale(1)" light-content="false" fill="none" stroke="#eceded" stroke-width="2"><path d="M-101.01 -32.73C-103.33 -34.07 -105.99 -34.74 -108.99 -34.74C-112.19 -34.74 -115.27 -33.58 -118.23 -31.26L-118.23 -33.78L-127.47 -33.78L-127.47 14.04L-118.23 14.04L-118.23 -2.4C-115.23 -0.12 -112.15 1.02 -108.99 1.02C-105.99 1.02 -103.33 0.35 -101.01 -0.99C-98.69 -2.33 -96.88 -4.34 -95.58 -7.02C-94.28 -9.7 -93.63 -12.98 -93.63 -16.86C-93.63 -20.74 -94.28 -24.02 -95.58 -26.7C-96.88 -29.38 -98.69 -31.39 -101.01 -32.73ZM-105.18 -9.66C-106.48 -8.02 -108.39 -7.2 -110.91 -7.2C-113.27 -7.2 -115.71 -8.12 -118.23 -9.96L-118.23 -23.76C-115.75 -25.56 -113.31 -26.46 -110.91 -26.46C-108.39 -26.46 -106.48 -25.64 -105.18 -24C-103.88 -22.36 -103.23 -19.98 -103.23 -16.86C-103.23 -13.7 -103.88 -11.3 -105.18 -9.66Z M-66.63 -34.5L-68.01 -34.5C-71.21 -34.5 -74.35 -33.18 -77.43 -30.54L-77.43 -33.78L-86.67 -33.78L-86.67 0L-77.43 0L-77.43 -22.74C-74.31 -25.06 -71.17 -26.22 -68.01 -26.22L-66.63 -26.22Z M-54.39 -1.32C-51.71 0.24 -48.47 1.02 -44.67 1.02C-40.87 1.02 -37.65 0.24 -35.01 -1.32C-32.37 -2.88 -30.38 -5.01 -29.04 -7.71C-27.7 -10.41 -27.03 -13.46 -27.03 -16.86C-27.03 -20.22 -27.7 -23.25 -29.04 -25.95C-30.38 -28.65 -32.37 -30.79 -35.01 -32.37C-37.65 -33.95 -40.87 -34.74 -44.67 -34.74C-48.47 -34.74 -51.71 -33.95 -54.39 -32.37C-57.07 -30.79 -59.08 -28.65 -60.42 -25.95C-61.76 -23.25 -62.43 -20.22 -62.43 -16.86C-62.43 -13.46 -61.76 -10.41 -60.42 -7.71C-59.08 -5.01 -57.07 -2.88 -54.39 -1.32ZM-38.73 -9.51C-40.09 -7.77 -42.07 -6.9 -44.67 -6.9C-47.31 -6.9 -49.32 -7.78 -50.7 -9.54C-52.08 -11.3 -52.77 -13.74 -52.77 -16.86C-52.77 -19.98 -52.08 -22.41 -50.7 -24.15C-49.32 -25.89 -47.31 -26.76 -44.67 -26.76C-42.07 -26.76 -40.09 -25.89 -38.73 -24.15C-37.37 -22.41 -36.69 -19.98 -36.69 -16.86C-36.69 -13.7 -37.37 -11.25 -38.73 -9.51Z M0.03 0L10.83 0L-0.69 -17.16L10.29 -33.78L-0.39 -33.78L-6.15 -24.54L-11.79 -33.78L-22.59 -33.78L-11.91 -17.64L-23.19 0L-12.39 0L-6.33 -10.2Z M16.77 -48.42L16.77 -39.36L26.01 -39.36L26.01 -48.42ZM16.77 -33.78L16.77 0L26.01 0L26.01 -33.78Z M84.69 -31.14C82.61 -33.38 79.43 -34.5 75.15 -34.5C73.15 -34.5 71.28 -34.07 69.54 -33.21C67.8 -32.35 66.03 -31.02 64.23 -29.22C62.31 -32.74 58.69 -34.5 53.37 -34.5C51.69 -34.5 50.12 -34.21 48.66 -33.63C47.2 -33.05 45.73 -32.14 44.25 -30.9L44.25 -33.78L35.01 -33.78L35.01 0L44.25 0L44.25 -23.1C46.65 -25.18 49.05 -26.22 51.45 -26.22C53.41 -26.22 54.79 -25.73 55.59 -24.75C56.39 -23.77 56.79 -22.28 56.79 -20.28L56.79 0L66.03 0L66.03 -20.28C66.03 -20.96 65.99 -21.86 65.91 -22.98C68.39 -25.14 70.83 -26.22 73.23 -26.22C75.19 -26.22 76.57 -25.73 77.37 -24.75C78.17 -23.77 78.57 -22.28 78.57 -20.28L78.57 0L87.81 0L87.81 -20.28C87.81 -25.28 86.77 -28.9 84.69 -31.14Z M102.21 -1.32C104.89 0.24 108.13 1.02 111.93 1.02C115.73 1.02 118.95 0.24 121.59 -1.32C124.23 -2.88 126.22 -5.01 127.56 -7.71C128.9 -10.41 129.57 -13.46 129.57 -16.86C129.57 -20.22 128.9 -23.25 127.56 -25.95C126.22 -28.65 124.23 -30.79 121.59 -32.37C118.95 -33.95 115.73 -34.74 111.93 -34.74C108.13 -34.74 104.89 -33.95 102.21 -32.37C99.53 -30.79 97.52 -28.65 96.18 -25.95C94.84 -23.25 94.17 -20.22 94.17 -16.86C94.17 -13.46 94.84 -10.41 96.18 -7.71C97.52 -5.01 99.53 -2.88 102.21 -1.32ZM117.87 -9.51C116.51 -7.77 114.53 -6.9 111.93 -6.9C109.29 -6.9 107.28 -7.78 105.9 -9.54C104.52 -11.3 103.83 -13.74 103.83 -16.86C103.83 -19.98 104.52 -22.41 105.9 -24.15C107.28 -25.89 109.29 -26.76 111.93 -26.76C114.53 -26.76 116.51 -25.89 117.87 -24.15C119.23 -22.41 119.91 -19.98 119.91 -16.86C119.91 -13.7 119.23 -11.25 117.87 -9.51Z" class="SYLTeuby_2"></path></g></g><style data-made-with="vivus-instant">.SYLTeuby_0{stroke-dasharray:412 414;stroke-dashoffset:413;animation:SYLTeuby_draw_0 6800ms linear 0ms infinite,SYLTeuby_fade 6800ms linear 0ms infinite;}.SYLTeuby_1{stroke-dasharray:429 431;stroke-dashoffset:430;animation:SYLTeuby_draw_1 6800ms linear 0ms infinite,SYLTeuby_fade 6800ms linear 0ms infinite;}.SYLTeuby_2{stroke-dasharray:1235 1237;stroke-dashoffset:1236;animation:SYLTeuby_draw_2 6800ms linear 0ms infinite,SYLTeuby_fade 6800ms linear 0ms infinite;}@keyframes SYLTeuby_draw{100%{stroke-dashoffset:0;}}@keyframes SYLTeuby_fade{0%{stroke-opacity:1;}94.11764705882354%{stroke-opacity:1;}100%{stroke-opacity:0;}}@keyframes SYLTeuby_draw_0{5.88235294117647%{stroke-dashoffset: 413}35.294117647058826%{ stroke-dashoffset: 0;}100%{ stroke-dashoffset: 0;}}@keyframes SYLTeuby_draw_1{13.23529411764706%{stroke-dashoffset: 430}42.64705882352941%{ stroke-dashoffset: 0;}100%{ stroke-dashoffset: 0;}}@keyframes SYLTeuby_draw_2{20.588235294117645%{stroke-dashoffset: 1236}50%{ stroke-dashoffset: 0;}100%{ stroke-dashoffset: 0;}}</style></svg>
